<svg width="23" height="31" viewBox="0 0 23 31" fill="none" xmlns="http://www.w3.org/2000/svg">
<g clip-path="url(#clip0_1771_148)">
<g filter="url(#filter0_f_1771_148)">
<ellipse cx="12" cy="29" rx="4" ry="2" fill="black" fill-opacity="0.12"/>
</g>
<mask id="path-2-outside-1_1771_148" maskUnits="userSpaceOnUse" x="0.916992" y="0.9375" width="22" height="28" fill="black">
<rect fill="white" x="0.916992" y="0.9375" width="22" height="28"/>
<path fill-rule="evenodd" clip-rule="evenodd" d="M17.1698 19.4362C19.5432 17.6729 21.0837 14.8308 21.0837 11.625C21.0837 6.27474 16.7931 1.9375 11.5003 1.9375C6.2076 1.9375 1.91699 6.27474 1.91699 11.625C1.91699 14.8308 3.45743 17.6729 5.83087 19.4362C7.63566 20.8109 10.1802 22.9801 10.7624 26.4726C10.8233 26.8382 11.1297 27.1221 11.5003 27.1221C11.871 27.1221 12.1773 26.8382 12.2383 26.4726C12.8205 22.9801 15.365 20.8109 17.1698 19.4362Z"/>
</mask>
<path fill-rule="evenodd" clip-rule="evenodd" d="M17.1698 19.4362C19.5432 17.6729 21.0837 14.8308 21.0837 11.625C21.0837 6.27474 16.7931 1.9375 11.5003 1.9375C6.2076 1.9375 1.91699 6.27474 1.91699 11.625C1.91699 14.8308 3.45743 17.6729 5.83087 19.4362C7.63566 20.8109 10.1802 22.9801 10.7624 26.4726C10.8233 26.8382 11.1297 27.1221 11.5003 27.1221C11.871 27.1221 12.1773 26.8382 12.2383 26.4726C12.8205 22.9801 15.365 20.8109 17.1698 19.4362Z" fill="#61088E"/>
<path d="M17.1698 19.4362L16.5734 18.6334L16.5638 18.6407L17.1698 19.4362ZM5.83087 19.4362L6.43686 18.6406L6.42723 18.6335L5.83087 19.4362ZM10.7624 26.4726L11.7488 26.3082L11.7488 26.3082L10.7624 26.4726ZM12.2383 26.4726L11.2519 26.3082L11.2519 26.3082L12.2383 26.4726ZM17.7661 20.2389C20.3847 18.2935 22.0837 15.1579 22.0837 11.625H20.0837C20.0837 14.5037 18.7017 17.0524 16.5734 18.6335L17.7661 20.2389ZM22.0837 11.625C22.0837 5.73268 17.3555 0.9375 11.5003 0.9375V2.9375C16.2306 2.9375 20.0837 6.81681 20.0837 11.625H22.0837ZM11.5003 0.9375C5.64515 0.9375 0.916992 5.73268 0.916992 11.625H2.91699C2.91699 6.81681 6.77005 2.9375 11.5003 2.9375V0.9375ZM0.916992 11.625C0.916992 15.1579 2.6159 18.2935 5.23451 20.2389L6.42723 18.6335C4.29896 17.0523 2.91699 14.5037 2.91699 11.625H0.916992ZM11.7488 26.3082C11.0977 22.4025 8.25741 20.0275 6.43682 18.6407L5.22493 20.2317C7.01391 21.5944 9.26265 23.5578 9.77599 26.6371L11.7488 26.3082ZM11.5003 26.1221C11.5772 26.1221 11.6414 26.1529 11.6816 26.1888C11.7195 26.2227 11.7415 26.2648 11.7488 26.3082L9.77599 26.6371C9.90959 27.4385 10.5953 28.1221 11.5003 28.1221V26.1221ZM11.2519 26.3082C11.2591 26.2648 11.2812 26.2227 11.3191 26.1888C11.3593 26.1529 11.4234 26.1221 11.5003 26.1221V28.1221C12.4054 28.1221 13.0911 27.4385 13.2247 26.6371L11.2519 26.3082ZM16.5638 18.6407C14.7432 20.0275 11.903 22.4025 11.2519 26.3082L13.2247 26.6371C13.738 23.5578 15.9867 21.5944 17.7757 20.2317L16.5638 18.6407Z" fill="url(#paint0_linear_1771_148)" mask="url(#path-2-outside-1_1771_148)"/>
</g>
<ellipse cx="11.5003" cy="11.625" rx="3.83333" ry="3.875" fill="#D28FF4"/>
<defs>
<filter id="filter0_f_1771_148" x="6" y="25" width="12" height="8" filterUnits="userSpaceOnUse" color-interpolation-filters="sRGB">
<feFlood flood-opacity="0" result="BackgroundImageFix"/>
<feBlend mode="normal" in="SourceGraphic" in2="BackgroundImageFix" result="shape"/>
<feGaussianBlur stdDeviation="1" result="effect1_foregroundBlur_1771_148"/>
</filter>
<linearGradient id="paint0_linear_1771_148" x1="11.5003" y1="1.9375" x2="11.5003" y2="27.1221" gradientUnits="userSpaceOnUse">
<stop stop-color="white"/>
<stop offset="1" stop-color="white" stop-opacity="0.35"/>
</linearGradient>
<clipPath id="clip0_1771_148">
<rect width="23" height="31" fill="white"/>
</clipPath>
</defs>
</svg>
